<svg width="12" height="12" viewBox="0 0 12 12" fill="none" xmlns="http://www.w3.org/2000/svg">
<path d="M10.8883 1.96879C10.7189 1.79915 10.5178 1.71432 10.2857 1.71432H9.42864V1.07144C9.42864 0.776851 9.32364 0.524601 9.11384 0.314779C8.90392 0.104958 8.65182 0 8.35709 0H7.92863C7.63393 0 7.38172 0.104958 7.1719 0.314803C6.96201 0.524601 6.8571 0.776874 6.8571 1.07146V1.71434H4.28581V1.07146C4.28581 0.776874 4.18086 0.524624 3.97101 0.314803C3.76121 0.104958 3.50899 0 3.21428 0H2.78575C2.49112 0 2.23887 0.104958 2.02902 0.314803C1.81923 0.524601 1.71425 0.776874 1.71425 1.07146V1.71434H0.857181C0.624985 1.71434 0.424123 1.79917 0.254478 1.96882C0.0848339 2.13844 -2.18309e-08 2.33939 -2.18309e-08 2.57152V11.1429C-2.18309e-08 11.3749 0.0848339 11.5758 0.254478 11.7455C0.424099 11.9151 0.624961 12 0.857181 12H10.2855C10.5176 12 10.7187 11.9152 10.8882 11.7455C11.0578 11.5759 11.1427 11.3749 11.1427 11.1429V2.5715C11.1427 2.3393 11.0579 2.13844 10.8883 1.96879ZM2.78568 11.1428H0.857181V9.21418H2.78568V11.1428ZM2.78568 8.78572H0.857181V6.64299H2.78568V8.78572ZM2.78568 6.21422H0.857181V4.28574H2.78568V6.21422ZM2.6351 3.15068C2.59268 3.10825 2.5715 3.05813 2.5715 3.00003V1.07153C2.5715 1.0135 2.59268 0.963241 2.6351 0.920883C2.67753 0.878454 2.72766 0.857275 2.78575 0.857275H3.21428C3.27231 0.857275 3.32257 0.878454 3.36493 0.920883C3.40736 0.963265 3.42858 1.0135 3.42858 1.07153V3.00003C3.42858 3.05815 3.40726 3.10827 3.36493 3.15068C3.32255 3.1931 3.27238 3.21428 3.21428 3.21428H2.78575C2.72773 3.21431 2.67753 3.1931 2.6351 3.15068ZM5.35711 11.1428H3.21421V9.21418H5.35711V11.1428ZM5.35711 8.78572H3.21421V6.64299H5.35711V8.78572ZM5.35711 6.21422H3.21421V4.28574H5.35711V6.21422ZM7.92863 11.1428H5.78576V9.21418H7.92863V11.1428ZM7.92863 8.78572H5.78576V6.64299H7.92863V8.78572ZM7.92863 6.21422H5.78576V4.28574H7.92863V6.21422ZM7.77789 3.15068C7.73551 3.10825 7.7144 3.05813 7.7144 3.00003V1.07153C7.7144 1.0135 7.73551 0.963241 7.77789 0.920883C7.82029 0.878454 7.87051 0.857275 7.92863 0.857275H8.35709C8.41521 0.857275 8.46538 0.878454 8.50783 0.920883C8.55024 0.963265 8.57132 1.0135 8.57132 1.07153V3.00003C8.57132 3.05815 8.55014 3.10827 8.50783 3.15068C8.46545 3.1931 8.41521 3.21428 8.35709 3.21428H7.92863C7.87053 3.21431 7.82013 3.1931 7.77789 3.15068ZM10.2855 11.1428H8.35693V9.21418H10.2855V11.1428ZM10.2855 8.78572H8.35693V6.64299H10.2855V8.78572ZM10.2855 6.21422H8.35693V4.28574H10.2855V6.21422Z" fill="#2F3C53"/>
</svg>
