<svg width="13" height="13" viewBox="0 0 13 13" fill="none" xmlns="http://www.w3.org/2000/svg">
<path d="M12.4811 3.9683C11.7957 2.36951 10.631 1.20675 9.01977 0.51918C8.21445 0.175533 7.37075 0 6.48932 0C5.60803 0 4.77055 0.173875 3.96613 0.51918C2.36821 1.20492 1.19836 2.36694 0.511758 3.9683C0.167704 4.77058 0 5.61109 0 6.49286C0 7.37479 0.167704 8.22228 0.511758 9.02472C1.19836 10.6261 2.36836 11.7951 3.96613 12.481C4.7707 12.8263 5.60801 13 6.48932 13C7.37062 13 8.21445 12.8245 9.01964 12.481C10.6309 11.7934 11.7956 10.6234 12.4811 9.02472C12.8262 8.21971 13 7.37479 13 6.49286C13 5.61109 12.8264 4.7733 12.4811 3.9683ZM11.4435 9.3661C10.9332 10.2416 10.2342 10.9362 9.35382 11.4498C8.47876 11.9603 7.51997 12.2178 6.48946 12.2178C5.71477 12.2178 4.97556 12.0685 4.27182 11.7626C3.5681 11.4569 2.9605 11.055 2.45222 10.5466C1.94395 10.038 1.5394 9.42418 1.23689 8.71887C0.935278 8.01612 0.789113 7.26814 0.789113 6.49288C0.789113 5.46166 1.04234 4.50721 1.54972 3.63409C2.05891 2.75779 2.75808 2.06246 3.63225 1.5504C4.50626 1.03836 5.45883 0.782256 6.48932 0.782256C7.51997 0.782256 8.47859 1.03987 9.35367 1.5504C10.2341 2.06397 10.9316 2.75928 11.4433 3.63407C11.9551 4.50872 12.2109 5.46166 12.2109 6.49286C12.2109 7.5241 11.9568 8.48505 11.4435 9.3661Z" fill="#2F3C53"/>
<path d="M0.827489 4.23388V0.413056C0.827489 0.184418 0.629726 0 0.402726 0C0.190432 0 0 0.184418 0 0.413056V4.29287C0 4.30027 0.0146844 4.32986 0.0146844 4.3519C4.48897e-07 4.48469 0.0367209 4.59533 0.124518 4.68392L2.31405 6.88931C2.46056 7.0369 2.73144 7.0369 2.87784 6.88931C3.04621 6.71969 3.03514 6.47357 2.87784 6.31399L0.827489 4.23388Z" transform="translate(6 2)" fill="#2F3C53"/>
</svg>
