<svg width="12" height="12" viewBox="0 0 12 12" fill="none" xmlns="http://www.w3.org/2000/svg">
<path d="M10.2426 1.75737C9.10941 0.624117 7.60266 0 6 0C4.39734 0 2.89062 0.624117 1.75737 1.75737C0.624117 2.89062 0 4.39734 0 6C0 7.60266 0.624117 9.10938 1.75737 10.2426C2.89062 11.3759 4.39734 12 6 12C7.60266 12 9.10941 11.3759 10.2426 10.2426C11.3759 9.10938 12 7.60266 12 6C12 4.39734 11.3759 2.89062 10.2426 1.75737ZM8.81203 2.57885L9.0758 1.4831C10.1261 2.20057 10.9144 3.27434 11.2654 4.52899L11.1272 4.55557C10.9209 4.59525 10.7549 4.75266 10.7043 4.95663L10.6507 5.17268C10.6501 5.17512 10.6497 5.17671 10.6458 5.17809C10.6419 5.17948 10.6406 5.17849 10.6386 5.17699L10.3184 4.93692C10.1525 4.81247 9.92655 4.79421 9.74285 4.89042L9.34334 5.09958C9.15173 5.19989 9.04097 5.39632 9.05428 5.61223C9.06759 5.82811 9.20163 6.00945 9.4042 6.0855L9.42314 6.0926C9.42532 6.09342 9.42694 6.09401 9.42792 6.09795C9.42891 6.10184 9.4278 6.10313 9.42623 6.10491L9.17737 6.3911C9.17487 6.39396 9.17056 6.39462 9.16732 6.39251L8.49654 5.95971C8.34272 5.86045 8.15098 5.8455 7.98368 5.91982C7.81638 5.99412 7.69882 6.1463 7.66929 6.32693L7.61754 6.64317C7.58829 6.82167 7.64969 7.00205 7.78181 7.12566L8.13164 7.45301C8.13441 7.45559 8.1349 7.45976 8.13281 7.4629L7.56267 8.32716C7.50844 8.4094 7.47764 8.50495 7.47368 8.60346L7.4242 9.8408C7.42413 9.84274 7.42331 9.84459 7.42188 9.84598L6.66263 10.5902C6.66012 10.5926 6.65625 10.5931 6.65327 10.5914L6.16095 10.303C6.15907 10.3019 6.15773 10.3 6.15729 10.2979C6.15729 10.2979 5.91844 9.2141 5.90951 9.19008L5.69236 8.60723C5.6198 8.41252 5.43919 8.27508 5.23223 8.2571L4.23844 8.17066C4.23593 8.17045 4.23368 8.16905 4.23241 8.16682L3.66705 7.19203C3.66616 7.19051 3.66586 7.1887 3.66609 7.18699L3.80829 6.24159C3.80859 6.23958 3.80965 6.23777 3.81127 6.23655L4.67932 5.58159C4.68152 5.57993 4.68443 5.5796 4.68698 5.58063L5.52811 5.93154C5.57599 5.95148 5.62641 5.96445 5.6779 5.97005L6.84288 6.09668C6.97568 6.11112 7.10817 6.07622 7.21657 5.99852L7.98841 5.44528C8.19635 5.29624 8.27156 5.01851 8.16724 4.78488L8.09564 4.62462C8.01256 4.43862 7.83457 4.31616 7.6312 4.30505L5.46354 4.18636C5.46237 4.18629 5.46119 4.18594 5.46016 4.18535C5.45796 4.18411 5.45679 4.1831 5.45667 4.1831V4.18313C5.45562 4.18069 5.45641 4.17452 5.45766 4.17281C5.45798 4.1726 5.45934 4.1719 5.46199 4.17115L6.11276 3.99574C6.19884 3.97254 6.27858 3.92796 6.34334 3.86684L7.13918 3.11583C7.14038 3.11468 7.14197 3.11395 7.14366 3.11377L8.34141 2.99041C8.56929 2.96698 8.75841 2.8016 8.81203 2.57885ZM4.75495 2.13853L5.2027 1.29577C5.26887 1.1712 5.28973 1.02649 5.26137 0.888328L5.20057 0.591961C5.46159 0.553523 5.72845 0.533344 5.99998 0.533344C6.27382 0.533344 6.54295 0.553852 6.80611 0.592898C6.80611 0.592898 6.74196 0.663023 6.73088 0.667453L6.09673 0.92182C6.00612 0.958195 5.92465 1.01663 5.86113 1.09083L4.87308 2.24569C4.85965 2.26139 4.8401 2.27088 4.81943 2.27177C4.78805 2.27316 4.76866 2.25584 4.75959 2.24576C4.72446 2.20666 4.75153 2.14505 4.75495 2.13853ZM2.424 1.86839V2.66852C2.424 2.892 2.31199 3.09785 2.12454 3.21945L1.55039 3.59201C1.41734 3.6784 1.30453 3.78853 1.21519 3.91948L0.694078 4.68307C0.969727 3.57277 1.58534 2.59528 2.424 1.86839ZM2.77254 9.74027L2.697 10.3529C1.84219 9.7027 1.18383 8.80702 0.828211 7.77173H1.16773C1.20933 7.77173 1.24772 7.7928 1.27013 7.82773L1.95626 8.8968C1.9872 8.9448 2.02399 8.98854 2.06613 9.02693L2.73361 9.63572C2.76267 9.66213 2.77734 9.70134 2.77254 9.74027ZM6 11.4667C4.9744 11.4667 4.014 11.1825 3.19296 10.6892L3.30188 9.80559C3.32775 9.5952 3.24961 9.38426 3.09307 9.24159C3.09307 9.24159 2.41095 8.61759 2.40506 8.60878L1.71893 7.53973C1.59785 7.35094 1.39172 7.23839 1.16773 7.23839H0.674836C0.582305 6.84033 0.53332 6.42577 0.53332 6C0.53332 5.95402 0.53393 5.90822 0.535055 5.86252L1.65572 4.22027C1.70505 4.14773 1.76719 4.08694 1.84078 4.03922L2.41465 3.66696C2.75437 3.4467 2.95732 3.07336 2.95732 2.66857V1.46053C3.47503 1.11239 4.05532 0.850617 4.67737 0.695461L4.73892 0.995484C4.74239 1.01248 4.73984 1.03027 4.7317 1.04555L4.284 1.88829C4.25602 1.94091 4.21976 2.07928 4.21976 2.07928C4.18341 2.26331 4.23258 2.45053 4.35469 2.59294C4.47113 2.72876 4.63795 2.80521 4.8157 2.80521C4.82435 2.80521 5.08219 2.8178 5.27831 2.59245L6.26634 1.43766C6.27415 1.42852 6.2842 1.42132 6.29531 1.41687L6.92941 1.16252C7.0196 1.12636 7.10072 1.0683 7.16405 0.994664L7.40341 0.716344C7.82475 0.828375 8.22637 0.98925 8.60147 1.19306C8.59528 1.20722 8.29345 2.45409 8.29345 2.45409C8.2927 2.45726 8.28998 2.45963 8.28673 2.45995L7.08891 2.5833C6.9712 2.59545 6.85901 2.64682 6.77302 2.72801L5.97717 3.47902C5.97626 3.47986 5.97516 3.48052 5.97389 3.48082L5.3231 3.65623C5.11078 3.71344 4.95541 3.89135 4.92729 4.10944C4.89916 4.32752 5.0043 4.539 5.19518 4.64827C5.26795 4.68989 5.35066 4.71431 5.43434 4.71891L7.602 4.83759C7.60488 4.83776 7.60744 4.83952 7.60861 4.84216L7.68019 5.00238C7.68169 5.00571 7.68061 5.0097 7.67761 5.01183L6.90577 5.56507C6.90422 5.5662 6.90241 5.56669 6.90047 5.56648L5.73337 5.43933L4.89234 5.08847C4.71565 5.01471 4.51099 5.04059 4.35813 5.15587L3.49005 5.81086C3.37638 5.89664 3.30211 6.02145 3.28095 6.16228L3.13873 7.1077C3.12054 7.22873 3.14435 7.3537 3.20573 7.45957L3.77112 8.43443C3.85943 8.58673 4.01688 8.68676 4.19229 8.70204L5.18611 8.78848C5.18904 8.78873 5.19164 8.79068 5.19267 8.79349L5.4101 9.37739L5.63632 10.4119C5.6685 10.559 5.76148 10.6871 5.89139 10.7632L6.38374 11.0516C6.46859 11.1013 6.56292 11.1255 6.65667 11.1255C6.79507 11.1255 6.93227 11.0727 7.03596 10.9711L7.79522 10.2269C7.89412 10.13 7.95162 10.0005 7.95715 9.86213L8.00663 8.62488C8.00667 8.62345 8.00709 8.62205 8.00791 8.62092L8.57808 7.75666C8.72369 7.53584 8.68919 7.24439 8.49605 7.06369L8.1462 6.73634C8.14432 6.73458 8.14345 6.732 8.14385 6.72944L8.19565 6.41318C8.19607 6.41062 8.19628 6.40908 8.20012 6.40737C8.20385 6.40566 8.20521 6.40652 8.20744 6.40793L8.87817 6.84073C9.10275 6.98564 9.40437 6.94289 9.5798 6.74116L9.82866 6.45497C9.94495 6.32128 9.98841 6.13891 9.94493 5.96716C9.90143 5.79541 9.77648 5.65568 9.61052 5.59338L9.59159 5.58628C9.58915 5.58537 9.58793 5.58457 9.58788 5.58457C9.58641 5.58255 9.58608 5.57651 9.58709 5.57454C9.58732 5.5743 9.58845 5.57337 9.59072 5.57217L9.99023 5.36299C9.99288 5.36161 9.99607 5.36187 9.99844 5.36365L10.3186 5.60372C10.4641 5.71289 10.6533 5.7416 10.8247 5.68057C10.9961 5.61956 11.1245 5.47772 11.1683 5.30114L11.2219 5.08512C11.2226 5.08221 11.225 5.07994 11.228 5.07938L11.3838 5.04942C11.4382 5.35826 11.4667 5.67588 11.4667 6.00007C11.4667 9.01434 9.01432 11.4667 6 11.4667Z" fill="#2D4251"/>
</svg>
