<svg width="11" height="12" viewBox="0 0 11 12" fill="none" xmlns="http://www.w3.org/2000/svg">
<path d="M9.03652 8.48249C8.57903 8.48249 8.16953 8.66198 7.85753 8.94498L3.56102 6.44598C3.59203 6.30749 3.61602 6.16799 3.61602 6.02398C3.61602 5.87998 3.59152 5.74098 3.56102 5.60198L7.80902 3.12647C8.13301 3.42648 8.5615 3.61396 9.03652 3.61396C10.038 3.61396 10.845 2.80846 10.845 1.80697C10.845 0.80749 10.0375 0 9.03652 0C8.03702 0 7.22953 0.80749 7.22953 1.80649C7.22953 1.95248 7.25402 2.08949 7.28453 2.22849L3.03651 4.70599C2.71201 4.4045 2.28402 4.21749 1.8085 4.21749C0.80701 4.21749 -1.46442e-08 5.0245 -1.46442e-08 6.02398C-1.46442e-08 7.02346 0.80701 7.83097 1.8085 7.83097C2.28349 7.83097 2.71201 7.64346 3.03601 7.34348L7.325 9.84799C7.2955 9.97549 7.27699 10.1085 7.27699 10.241C7.27699 11.211 8.06748 12 9.036 12C10.0055 12 10.7965 11.2115 10.7965 10.241C10.7965 9.27049 10.006 8.48249 9.03652 8.48249Z" fill="#2F3C53"/>
</svg>
