<svg width="12" height="12" viewBox="0 0 12 12" fill="none" xmlns="http://www.w3.org/2000/svg">
<path d="M9.16445 7.7093C8.47425 7.7093 7.8588 8.03821 7.46512 8.54651L4.1686 6.70515C4.24585 6.48339 4.28821 6.24419 4.28821 5.99751C4.28821 5.74834 4.24585 5.51163 4.16611 5.28738L7.46013 3.4485C7.85133 3.9593 8.46927 4.2907 9.16196 4.2907C10.343 4.2907 11.3073 3.3289 11.3073 2.14535C11.3073 0.961794 10.3455 0 9.16196 0C7.97841 0 7.01661 0.961794 7.01661 2.14535C7.01661 2.39452 7.05897 2.63372 7.1387 2.85548L3.84718 4.69435C3.45598 4.18106 2.83804 3.85216 2.14535 3.85216C0.964286 3.85216 4.75253e-09 4.81395 4.75253e-09 5.99751C4.75253e-09 7.18106 0.964286 8.14286 2.14784 8.14286C2.84053 8.14286 3.45847 7.81146 3.85216 7.29817L7.14618 9.13953C7.06645 9.36379 7.0216 9.60548 7.0216 9.85465C7.0216 11.0357 7.98339 12 9.16694 12C10.3505 12 11.3123 11.0382 11.3123 9.85465C11.3123 8.6711 10.348 7.7093 9.16445 7.7093ZM9.16445 0.675249C9.97674 0.675249 10.637 1.33555 10.637 2.14784C10.637 2.96013 9.97674 3.62043 9.16445 3.62043C8.35216 3.62043 7.69186 2.96013 7.69186 2.14784C7.69186 1.33555 8.35465 0.675249 9.16445 0.675249ZM2.14784 7.4701C1.33555 7.4701 0.675249 6.8098 0.675249 5.99751C0.675249 5.18522 1.33555 4.52492 2.14784 4.52492C2.96013 4.52492 3.62043 5.18522 3.62043 5.99751C3.62043 6.8098 2.95764 7.4701 2.14784 7.4701ZM9.16445 11.3248C8.35216 11.3248 7.69186 10.6645 7.69186 9.85216C7.69186 9.03987 8.35216 8.37957 9.16445 8.37957C9.97674 8.37957 10.637 9.03987 10.637 9.85216C10.637 10.6645 9.97674 11.3248 9.16445 11.3248Z" fill="#2D4251"/>
</svg>
